#N canvas 87 74 675 554 10;
#X obj 24 31 vradio 15 1 0 5 empty empty MODE_SELECTOR 0 -8 0 10 -262144
-1 -1 0;
#X text 44 31 NORMAL;
#X text 44 46 VERTICAL MIRROR;
#X text 44 61 HORIZONTAL MIRROR;
#X text 44 76 3 BARS;
#X text 45 91 MOTION SENSOR;
#X obj 24 176 pack f f f f;
#X obj 156 36 grid grid1 120 0 1 120 0 1 1 0.001 0.001 10 10 216 104
;
#X obj 47 136 hradio 15 1 0 2 empty empty REFLECTION_SIDE 0 -8 0 10
-262144 -1 -1 0;
#X obj 47 156 bng 15 250 50 0 empty empty empty 17 7 0 10 -262144 -1
-1;
#X text 159 19 CAMERA CENTER;
#X obj 30 492 sendOSC;
#X msg 30 396 connect localhost 10115;
#X msg 37 417 disconnect;
#X obj 107 438 r msgStart;
#X obj 175 438 r msgEnd;
#X msg 107 459 [;
#X msg 175 459 ];
#X obj 45 438 r msgBody;
#X connect 0 0 6 0;
#X connect 7 0 6 2;
#X connect 7 0 9 0;
#X connect 7 1 6 3;
#X connect 7 1 9 0;
#X connect 8 0 9 0;
#X connect 8 0 6 1;
#X connect 9 0 6 0;
#X connect 12 0 11 0;
#X connect 13 0 11 0;
#X connect 14 0 16 0;
#X connect 15 0 17 0;
#X connect 16 0 11 0;
#X connect 17 0 11 0;
#X connect 18 0 11 0;
