#N canvas 1 32 817 447 10;
#X obj 12 -26 vradio 15 1 0 5 empty empty MODE_SELECTION 0 -8 0 10
-262144 -1 -1 0;
#X text 30 -27 NORMAL;
#X text 29 -12 VERTICAL MIRROR;
#X text 29 4 HORIZONTAL MIRROR;
#X text 29 19 3 BARS;
#X text 29 34 MOTION SENSOR;
#X msg 217 259 connect localhost 10115;
#X obj 217 238 loadbang;
#X obj 360 76 vradio 15 1 0 3 empty empty Threshold_option 0 -8 0 10
-262144 -1 -1 0;
#X text 380 74 Soft mode;
#X text 380 90 BnW mode;
#X text 380 105 Strong mode;
#X obj 12 142 t b list b;
#X msg 232 280 disconnect;
#X obj 217 332 sendOSC;
#X obj 35 79 hradio 15 1 0 2 empty empty Reflected_side 0 -8 0 10 -262144
-1 -1 0;
#X obj 35 101 bng 15 250 50 0 empty empty empty 17 7 0 10 -262144 -1
-1;
#X obj 671 -4 tgl 15 0 empty empty TINT 17 7 0 10 -262144 -1 -1 0 1
;
#X obj 653 -36 tgl 15 0 empty empty SHARPEN 17 7 0 10 -262144 -1 -1
0 1;
#X obj 464 -36 tgl 15 0 empty empty GRAYSCALE 17 7 0 10 -262144 -1
-1 0 1;
#X obj 482 -5 tgl 15 0 empty empty CRYSTAL_DIST 17 7 0 10 -262144 -1
-1 0 1;
#X obj 303 165 t b list b;
#X obj 303 -28 vradio 15 1 0 3 empty empty THRESHOLD 0 -8 0 10 -262144
-1 -1 0;
#X text 324 -29 Off;
#X text 324 -14 Threshold;
#X text 324 1 Inverted;
#X msg 303 207 send /eff/thres \$1 \$2 \$3;
#X floatatom 217 354 5 0 0 0 - - -;
#X floatatom 256 354 5 0 0 0 - - -;
#X obj 331 125 bng 15 250 50 0 empty empty empty 17 7 0 10 -262144
-1 -1;
#X obj 334 41 hsl 100 15 10 90 0 0 empty empty Threshold_limit -2 -8
0 10 -262144 -1 -1 8200 1;
#X msg 308 303 [;
#X msg 402 303 ];
#X obj 513 28 hsl 100 15 0 12 0 0 empty empty Polygon_sides -2 -8 0
10 -262144 -1 -1 3400 1;
#X obj 542 59 hsl 100 15 8 20 0 0 empty empty Cell_size -2 -8 0 10
-262144 -1 -1 3400 1;
#X obj 671 303 t b list b;
#X msg 671 345 send /eff/tint \$1 \$2;
#X obj 482 121 t b list b;
#X msg 482 163 send /eff/crystal \$1 \$2 \$3;
#X obj 653 150 pack f;
#X obj 482 100 pack f f f;
#X obj 303 144 pack f f f;
#X obj 653 171 t b list b;
#X obj 464 206 pack f;
#X obj 464 227 t b list b;
#X msg 464 269 send /eff/gray \$1;
#X msg 653 214 send /eff/sharp \$1;
#X obj 692 263 bng 15 250 50 0 empty empty empty 17 7 0 10 -262144
-1 -1;
#X obj 510 81 bng 15 250 50 0 empty empty empty 17 7 0 10 -262144 -1
-1;
#X obj 539 81 bng 15 250 50 0 empty empty empty 17 7 0 10 -262144 -1
-1;
#X obj 692 25 vsl 15 100 0 359 0 0 empty empty hue 0 -9 0 10 -262144
-1 -1 4800 1;
#X obj 671 282 pack;
#X obj 150 -28 grid grid1 120 0 1 120 0 1 1 0.001 0.001 10 10 215 44
;
#X obj 308 280 r msgStart;
#X obj 402 280 r msgEnd;
#X obj 338 303 r msgBody;
#X obj 12 121 pack f f f f;
#X obj 360 186 s msgStart;
#X obj 303 186 s msgEnd;
#X obj 303 228 s msgBody;
#X obj 710 192 s msgStart;
#X obj 653 192 s msgEnd;
#X obj 728 324 s msgStart;
#X obj 671 324 s msgEnd;
#X obj 539 142 s msgStart;
#X obj 482 142 s msgEnd;
#X obj 521 248 s msgStart;
#X obj 464 248 s msgEnd;
#X obj 653 235 s msgBody;
#X obj 464 290 s msgBody;
#X obj 671 366 s msgBody;
#X obj 482 184 s msgBody;
#X obj 69 163 s msgStart;
#X obj 12 163 s msgEnd;
#X obj 12 205 s msgBody;
#X text 157 -45 CAMERA CENTER;
#X msg 12 184 send /mode \$1 \, send /modeOpt \$2 \$3 \$4;
#X obj 463 318 r msgBody;
#X obj 463 339 print;
#X obj 360 125 bng 15 250 50 0 empty empty empty 17 7 0 10 -262144
-1 -1;
#X obj 79 297 t b list b;
#X obj 136 318 s msgStart;
#X obj 79 318 s msgEnd;
#X obj 79 360 s msgBody;
#X obj 210 128 bng 15 250 50 0 empty empty SAVE_PHOTO 0 -7 0 10 -262144
-1 -1;
#X obj 79 255 expr $f1 + $f2;
#X msg 79 234 1;
#X obj 79 276 pack f;
#X floatatom 135 234 5 0 0 0 - - -;
#X obj 210 148 s photo;
#X obj 79 213 r photo;
#X msg 79 339 send /photo \$1;
#X connect 0 0 56 0;
#X connect 6 0 14 0;
#X connect 7 0 6 0;
#X connect 8 0 41 2;
#X connect 8 0 79 0;
#X connect 12 0 73 0;
#X connect 12 1 76 0;
#X connect 12 2 72 0;
#X connect 13 0 14 0;
#X connect 14 0 27 0;
#X connect 14 1 28 0;
#X connect 15 0 56 1;
#X connect 15 0 16 0;
#X connect 16 0 56 0;
#X connect 17 0 51 0;
#X connect 18 0 39 0;
#X connect 19 0 43 0;
#X connect 20 0 40 0;
#X connect 21 0 58 0;
#X connect 21 1 26 0;
#X connect 21 2 57 0;
#X connect 22 0 41 0;
#X connect 26 0 59 0;
#X connect 29 0 41 0;
#X connect 30 0 29 0;
#X connect 30 0 41 1;
#X connect 31 0 14 0;
#X connect 32 0 14 0;
#X connect 33 0 40 1;
#X connect 33 0 48 0;
#X connect 34 0 40 2;
#X connect 34 0 49 0;
#X connect 35 0 63 0;
#X connect 35 1 36 0;
#X connect 35 2 62 0;
#X connect 36 0 70 0;
#X connect 37 0 65 0;
#X connect 37 1 38 0;
#X connect 37 2 64 0;
#X connect 38 0 71 0;
#X connect 39 0 42 0;
#X connect 40 0 37 0;
#X connect 41 0 21 0;
#X connect 42 0 61 0;
#X connect 42 1 46 0;
#X connect 42 2 60 0;
#X connect 43 0 44 0;
#X connect 44 0 67 0;
#X connect 44 1 45 0;
#X connect 44 2 66 0;
#X connect 45 0 69 0;
#X connect 46 0 68 0;
#X connect 47 0 51 0;
#X connect 48 0 40 0;
#X connect 49 0 40 0;
#X connect 50 0 47 0;
#X connect 50 0 51 1;
#X connect 51 0 35 0;
#X connect 52 0 56 2;
#X connect 52 0 16 0;
#X connect 52 1 56 3;
#X connect 52 1 16 0;
#X connect 53 0 31 0;
#X connect 54 0 32 0;
#X connect 55 0 14 0;
#X connect 56 0 12 0;
#X connect 76 0 74 0;
#X connect 77 0 78 0;
#X connect 79 0 41 0;
#X connect 80 0 82 0;
#X connect 80 1 91 0;
#X connect 80 2 81 0;
#X connect 84 0 89 0;
#X connect 85 0 87 0;
#X connect 85 0 88 0;
#X connect 86 0 85 0;
#X connect 87 0 80 0;
#X connect 88 0 85 1;
#X connect 90 0 86 0;
#X connect 91 0 83 0;
